<?xml version="1.0" encoding="utf-8"?>
<!-- Generator: Adobe Illustrator 24.0.3, SVG Export Plug-In . SVG Version: 6.00 Build 0)  -->
<svg version="1.1" id="レイヤー_1" xmlns="http://www.w3.org/2000/svg" xmlns:xlink="http://www.w3.org/1999/xlink" x="0px"
	 y="0px" viewBox="0 0 1795 1756.9" style="enable-background:new 0 0 1795 1756.9;" xml:space="preserve">
<style type="text/css">
	.st0{fill:#32CD32;stroke:#32CD32;stroke-width:0.5;stroke-linejoin:round;}
	.st1{fill:#FF0000;stroke:#32CD32;stroke-width:0.5;stroke-linejoin:round;}
	.st2{enable-background:new    ;}
</style>
<path class="st0" d="M916.2,702.6l-1,6h-3v-9l6-2L916.2,702.6z M945.2,723.6l-1-11l-4-7l-5-1l-2-5l-4-1l-2-5l4-8l-1-11l2-3l8-2l6-9
	l3,4l2-1l4-9l6-5l-9-13v-7l7-3l14,11l10-3v3l7,2l6-2l5-10l-5-24l2-5l8-4l4-5l-1-23l4-8l1-11l-3-17l-8-19l3-10l-1-6l2,3h5l6-8l26,28
	l8,13l16,17l29,18l28,6l1,4l6,5h19l22-27l2,5l-11,24v9l4,6l9,3l-2,2l2-3h-6l4,13l6,6l5,1l6-8l8-1l-11,8l-1,7l-17,3l-2,6l-5,5h-5
	l-2-2l1-2l-2-1l-4,6l3,2l-15,1l-8-3l-15,8l-14,16l-8,14l-3,8v16l-2,8l-14-12l-23-8l-28-18l-13-2l4-2l-16,8l-15,15l-4-2l4-1l-5-1
	l-2-6l-8-7h-10l-6,8l-3,9l1,5l12,8l10-1l10,12l8,4l2,3l-6,5l-4,1l-9-4l-3,3v-5h-3l-2,5l-7,4v9l-8,3l-3,6l-8-3l-2-7l1-9L945.2,723.6z
	 M984.2,510.6l2-2l4,1l2,5l-4,4l-4-4V510.6z M978.2,497.6v-1l2,2l-1,9l-4-10H978.2z M1282.2,481.6l-2-5h-2l-2,4l2,7l-1,3l-5,1l-2,8
	l-7-2l1,7l-10,10l-1,4l-5-1v3l4,1v4l-4,4l-4-1l1,5l-3-4l1,5l-3,7l4,1l4-9l6-1l4-9l10-9l3-10l5,2l6-1l15-18l13-9l9-1l1-4l-2-3l2-4
	l-5-2l-6,2l-12,17l-11,3L1282.2,481.6z M1203.2,562.6l5-6l8-2l5-6l3,1l3-7l-11,3l-7-5l-4,2l-3,11l-10,14v3l-13,15l2,7l5-1v5l1-14
	l8-4l1-6h3v-7L1203.2,562.6z M1235.2,588.6l11-9l-4-3l-4,3l1,2l-7,1v4l2-1L1235.2,588.6z M1213.2,606.6l3-5l-6,1L1213.2,606.6z
	 M1203.2,609.6l2-2h-4L1203.2,609.6z"/>
<path class="st0" d="M938.2,810.6v-7l-4-4l7-8h5l7-4l2-16l-3-5l3-1l1-7l6,5l4-3l4,2l2,15l3,7l6-3l-1-4l2-4l11,8l3-2l4-16l-4-7l-6,6
	l-14,3l6-26l17,12l9-5l-3,31l3,14l4,11l4-1l5,5l-6,7l-5-1l-4,2l-2-2l-14,10l-3-2l1-11l-5,1v-6l-11,7l-3-2l-2,2l-7-5l-3,3l-13-1l-2,3
	L938.2,810.6z"/>
<path class="st0" d="M1023.2,899.6l-7-1l-2,13l-7-2l-3,5l-7-5l2-3h-7l-11-5l2-6l-3-5l2-3l-8-13l4-11l4-5l-2-5l3-4l-3-5h4l-1-19l4-5
	l3,2l14-10l2,2l4-2l5,1l6-7l7,12l-1,4l4,3l-2,5l7,5l2,14l-2,11l4-5v5l2,2l-5,5l1,2l4-3l-1,4h-3l-1,4l-2,1l4-1l-5,3l2,3l-2,1h4l-6,7
	l4,2h-5l3,3h-3l2,2l-6,1v-3l1,4h-2v4l-1-4L1023.2,899.6z"/>
<path class="st0" d="M991.2,967.6l-4,1l1,5h-5l1,2l-5-1l-1-6h-9l-4-5h-6l-1-5l7-1l3-7v-5l7-12l-5-11l3-1l2-8l-5-7h5l6-5l11,5h7l-2,3
	l7,5l3-5l7,2l2-13l7,1l2,7l-5-3l2,5l-4,4l2,5l-2-2l-4,3l5,2l-4,6h4v3l-3-2l2,5h-3l1,3h4l-3,1l3,3l-1,4l-4-3l1-2h-2l2-1l-2-2l-17,2
	l-2,4l3,1l-4,2h2l-5,10L991.2,967.6L991.2,967.6z M1001.2,939.6l1,1h-2L1001.2,939.6z"/>
<path class="st0" d="M981.2,901.6l-6,5h-5l-4-2l-2-4l-13-4l-5-5l-9,1l2-9l5-9l1-23l-7-7l-8,2l-3-8l6,2l6-8l4-8v-8l-5-6l4,1l2-3l13,1
	l3-3l7,5l2-2l3,2l11-7v6l5-1l-1,11l-4,5l1,19h-4l3,5l-3,4l2,5l-4,5l-4,11l8,13l-2,3l3,5L981.2,901.6z"/>
<path class="st0" d="M937.2,892.6l9-1l5,5l13,4l2,4l4,2l5,7l-2,8l-3,1l5,11l-7,12v5l-3,7l-7,1l1,5l-1,9l2,2l-3,4l-6,1l-3-3l-3,1
	l-3-4l-6,2l-7-3l-2-4l3-9l-1-7l9-4l2-4l-10-6l1-7l-9-3l13-22L937.2,892.6z"/>
<path class="st0" d="M986.2,1032.6l-10-5v5l-6,5l-10-8l-1-6l-6-5l-12-3l-25,16l-8-2l1-14l-5-4l4-7l-2-4l1-3h9l1-4h8l-2-8l9-11l-3-2
	l7,3l6-2l3,4l3-1l3,3l6-1l3-4l-2-2l1-9h6l4,5h9l1,6l5,1l-1-2h5l-1-5l4-1l6,15v26l-2,17L986.2,1032.6z"/>
<path class="st0" d="M936.2,1082.6L936.2,1082.6h-2l-2-7l6-3l2-4l3,1l3-5l11-2l3-7l-2-11l3-2l-2-3l1-10l10,8l6-5v-5l10,5l-8,24l1,7
	l-3,6l2,11l5,8l-2,3l2,3l1-5l7,13l-17-13l-1,3l-17,5l-11-6L936.2,1082.6z"/>
<path class="st0" d="M932.2,1075.6h-1l-2-4h-9l-5-7l6-13l-8-2l1-9l3-4l-3-1l2-4l25-16l12,3l6,5l1,6l-1,10l2,3l-3,2l2,11l-3,7l-11,2
	l-3,5l-3-1l-2,4L932.2,1075.6z"/>
<path class="st0" d="M931.2,1075.6l-11,1l-5-4l-11-2l-5,10l-16,9l-4-2v-6l-3-3h3l-2-7l3-2l-1-6h-9l-3-5l1-7l5-4l-1-2l9-3l12-6v-3
	l3-1l-1-5l4-1l2-4l7,7l8,2l-2,4l3,1l-3,4l-1,9l8,2l-6,13l5,7h9L931.2,1075.6z"/>
<path class="st0" d="M931.2,1075.6h1l2,7h2l0,0l7,13v6l-7-2l-1,2l-4-1l-6,3v-3l-8,3l-4-5l-15-3l-4,2l-10-3l-1-5l16-9l5-10l11,2l5,4
	L931.2,1075.6z"/>
<path class="st0" d="M942.2,1110.6l2-4l-1-5v-6l-7-13l9,9l11,6l17-5l1-3l17,13l1,3l-10,1l-11,10l-3,22l-13,4l-11,14l-7-4l5-2l-3-2
	l2-3l-1-6l2-4l-4-5l3-4l3,1v-4l6-2l5-7l-7-7l-5,4L942.2,1110.6z"/>
<path class="st0" d="M1081.2,1635.6l2,4h-2V1635.6z M943.2,1267.6v5l-5-6L943.2,1267.6z M928.2,1208.6l-2,2l-3-2l3-3L928.2,1208.6z
	 M906.2,1198.6l2,2l-3,1L906.2,1198.6z M913.2,1192.6l-2-2l2-4V1192.6z M917.2,1169.6v-6l4,2v5L917.2,1169.6z M943.2,1101.6l1,5
	l-2,4l-6-1l2,5h-4h4v3l-14-7l-4,2l3,2h-1l-1,5l-3-5l-14-5l-5-3l-5-9l4-2l15,3l4,5l8-3v3l6-3l4,1l1-2L943.2,1101.6z"/>
<path class="st0" d="M904.2,1109.6l14,5l3,5l1-5h1l-3-2l4-2l14,7l-4,4h-4l3,4l-3-1v8l6,2l-5,5l2,2h-4l1-4l-3-5l-7-2l-12,3l-3,3l1,6
	h-2l-7-4l1-12h-5l10-9L904.2,1109.6z"/>
<path class="st0" d="M835.2,1041.6l-3-11l-4-3l14-5l9-7h7l15-12l10-15l5-13l19-13l1,3l-1-2l7-6l8-29l9,3l-1,7l10,6l-2,4l-9,4l1,7
	l-3,9l2,4l3,2l-9,11l2,8h-8l-1,4h-9l-1,3l2,4l-4,7l5,4l-1,14l-7-7l-2,4l-4,1l1,5l-3,1v3l-12,6v-7l-5-4v-4l-3-3l-7,2l-5,6v4l-4-2
	l-8,5l-2-2v-5l-7-1v3L835.2,1041.6z M864.2,974.6l-8,1l7-9l-2-3l-3,2v-5l4-9l10-8l-4,15l7,1l-4,9L864.2,974.6z"/>
<path class="st0" d="M826.2,1064.6l-10-4l-4,2v-2l-5,2l-3-2l-9,11l-1-4l-4-2l-4,5l-1-9l2-7l-2-4l3-4l-2-3l3-2l2-10l8-3l-3,7l12,7
	l8-4l2-8l10-3l4,3l3,11l-1,11l-3,1l1,3L826.2,1064.6z"/>
<path class="st0" d="M795.2,1019.6l-3-3h7L795.2,1019.6z M786.2,1070.6l3,3l-5,10l-5,1l-5-5l-10-1l-6-9l14-14l12-18l1-11l-2-4v-5
	l-3-1l5-13l25-10l4,1l1,4l-6,1l-1,9l-4-1l-7,7l-2-3l-3,1l-2,9l6,2l3-4v9l-8,3l-2,10l-3,2l2,3l-3,4l2,4l-2,7L786.2,1070.6z"/>
<path class="st0" d="M758.2,1069.6l6,9l10,1l5,5l5-1l-2,6l5,8l-2,4h-13l-1,3l-7-3l-5,8l-6-2l1,8l-3-1l-1,3l-5,3l-3-2l-3,7l-4-1l-2,4
	l-12-2l-4-6l2-5l2,4l7-3l-4,3l6,1l3-3h-2l-1-3l6,3l-1-3l3-1l-2-3l8,1l-1-6l3-3v6l3,1l1-7l-7-13l9-13v-4L758.2,1069.6z"/>
<path class="st0" d="M858.2,1111.6l-2-5l3-2l-3-3l9-11l6,5l6-2l4,4l3-3l10,3l5,9l5,3l-1,8l-10,9l-12,3l-5-6l-3,8l1,7l-5,2l-4-9l-6-1
	l1-11L858.2,1111.6z"/>
<path class="st0" d="M881.2,1042.6l-9,3l1,2l-5,4l-1,7l3,5h9l1,6l-3,2l2,7h-3l3,3v6l4,2l1,5l-3,3l-4-4l-6,2l-6-5l-9,11l3,3l-3,2l2,5
	l-4,5v12l-16,10l-8-2l-5,3l-1-6l2-3l-1-4h3l-2-3l2-4l-6-6l2-3l-5-7l-7-3l3-5h5l6-7l1-4l-3-4l5-10l-3-6l6-8l-1-3l3-1l1-11l5-7v-3l7,1
	v5l2,2l8-5l4,2v-4l5-6l7-2l3,3v4l5,4V1042.6z"/>
<path class="st0" d="M826.2,1064.6l3,6l-5,10l3,4l-1,4l-6,7h-5l-3,5l7,3l5,7l-2,3l6,6l-2,4l2,3h-3l1,4l-2,3l-6,4l-7-4l-6,2l-5-2
	l-6-8l-10,3l-5,8v6l-7-7l-6,2l-2-2l3-9v-3l-3-7h-3l-2-7l5-8l7,3l1-3h13l2-4l-5-8l2-6l5-10l-3-3l4-5l4,2l1,4l9-11l3,2l5-2v2l4-2
	L826.2,1064.6z"/>
<path class="st0" d="M893.2,1126.6h5l-1,12l7,4l-3,5l5,6l-1,4l-7,10v5l-8,4l-5-6l2-14l-1-3l1-4l6-1l-11-6l-7,3l-3,4l1,3l-8,4l-3,9
	l-5,7l1,4l-13-4l-25-1v-8l8-5l10-20l16-10v-12l4-5l2,8l-1,11l6,1l4,9l5-2l-1-7l3-8l5,6L893.2,1126.6z"/>
<path class="st0" d="M820.2,1171.6l-24,6l3-5l2,2l9-6l1,3l3-3l-1-3l-6-3l-2,4l-8-1l-4-3l2-8l-4,11l3,4h-2l-5-3l2-5l-3-3v-5l4-7l-6,3
	l-5-7v-6l5-8l10-3l6,8l5,2l6-2l7,4l6-4l1,6l5-3l8,2l-10,20l-8,5V1171.6z"/>
<path class="st0" d="M743.2,1230.6l-5-3l-2-7l1,1v-3h1l6-3l-1-3l6-1v-3l-1-7l2-4l-2-3l2-1l-3-5l9-6l-10-6l2-3l-2-2h2l-1-4l-2-4l4-1
	l1-6l7,3l6-3l4-10l-1-9l6-2l7,7l5,7l-6,2v4l-7,12v8l16,7l2,5l2-2v5h-5h5l-1,6h-3l1-1l-3-2v2h-6l2-3h-3l-3,5l-1-2l-2,2l-2-1v3l-2-2
	l-8,3l-2,3l1,4h-3l1-2l-3,3l4,3l-2,1l1,3l-3-2l1,3l-7,4L743.2,1230.6z"/>
<path class="st0" d="M759.2,1109.6l2,7h3l3,7v3l-3,9l2,2l1,9l-4,10l-6,3l-7-3l-1,6l-4,1l-4-6h-4l-2-10l2-15l-4-4l2-4l4,1l3-7l3,2
	l5-3l1-3l3,1l-1-8L759.2,1109.6z"/>
<path class="st0" d="M730.2,1164.6l-2-8l-4-2v-2l-3,3l-9-8l1-6l-9-2l-2-6l-5,1l-7-5v-6l6,1v-7v-2l-6,2l-3-5l1-4l2,3l-1-3l17-7l4,7
	l-8,6l2,2l3-4l-1,4l5,1l-1,4l2-2l2,1l-3-5l7-3l1,3l-2,5l4,6l12,2l4,4l-2,15l2,10h4l4,6l2,4l-2,1l-5-3l-4,3L730.2,1164.6z"/>
<path class="st0" d="M712.2,1147.6l9,8l3-3v2l4,2l2,8l-4,10l2,10l-2,4l-26,6l-3-2l6-2l7-6l3-10l3,3l-3-9l3-2l-2-11l3-1l-6-2l-1-5
	H712.2z"/>
<path class="st0" d="M685.2,1196.6l-7,3l-1-4l-3,1v-4l19-19l1,3l-7,9l2,9L685.2,1196.6z M658.2,1165.6l1-3l-4-5l2-3l-2-7l8-9v-5l6-2
	v-5l-7-17l9-3l17,2l-1,4l3,5l6-2v2v7l-6-1v6l7,5l5-1l2,6l9,2l-1,6h-2l1,5l6,2l-3,1l2,11l-3,2l-5-1l-13,5l-15-9h-14l-1-3l-2,5l-3-2
	L658.2,1165.6z"/>
<path class="st0" d="M743.2,1212.6l-4,2l-1,4h-1v3l-1-1l-14-2l2-5l-4-7l5-7l4-1l-3-10l2-4l-2-10l4-10l6,4l4-3l5,3l2-1l1,4h-2l2,2
	l-2,3l10,6l-9,6l3,5l-2,1l2,3l-2,4l1,7v3L743.2,1212.6z"/>
<path class="st0" d="M736.2,1220.6l2,7l5,3l-4,5l2,4l-9,5l-1,3h-1v-2l-16-5l-6-8l4-3l-9-4l-5-6h-4l3-5l-2-1l5-3l-4-3l3-2l-1-2l5-1
	l-8-7l2-3l3,2l26-6l3,10l-4,1l-5,7l4,7l-2,5L736.2,1220.6z M743.2,1212.6l1,3l-6,3l1-4L743.2,1212.6z"/>
<path class="st0" d="M605.2,1142.6l-7-2l3-5l-2-4l8-2l1-9l-6-8l3-1l2,4l6,2l8-4l11,2l21-1l9-5l7,17v5l-6,2l-12,4l-1-7l-7-2l1-3
	l-10,6l-4-4l-8-2l-2,6l-3,1l1,3l-6-1v4l-6,1L605.2,1142.6z"/>
<path class="st0" d="M594.2,1076.6l5-2l-3,5l-3-2l1,3l-3-3L594.2,1076.6z M600.2,1078.6l-3,2v-4l3-1l2,3H600.2z M604.2,1067.6l5-6
	l5,5l-1,4l-3,1l2,2h-5L604.2,1067.6z M523.2,1161.6l8-2l14-14l11-6l6-8l11-5l2-6l-2-3l18-5l6-5l3,3h8l-3,1l-3,1l6,8l-1,9l-8,2l2,4
	l-3,5l-13-2l-7,9l-6,3l3,4l-8,2l-6-2l-2,3l-8-2l-6,5l2,2l-2,6l-5,5l1,2l-3,2v4l-3,4l-2-2l-5,2l-3-4l2-5h-5l-1-4l3-5L523.2,1161.6z"
	/>
<path class="st0" d="M663.2,1133.6v5l-8,9l2,7l-2,3l4,5l-1,3l-7-1l3,2l-7,7l-9-1l5,2l-2,4l-2-1l-2,4l-5-2l-2,3l-3-6v4l-3-5l-4,4
	l-6-3l2,4l-4-2l-4-16l2-4l-4-6l1-7l-2-3l1-3l6-1v-4l6,1l-1-3l3-1l2-6l8,2l4,4l10-6l-1,3l7,2l1,7L663.2,1133.6z"/>
<path class="st0" d="M612.2,1178.6v2l-3-2l3,3h-2l-2,4l-6-2v-3l-9,2l-2,5h-13l-2,4l-6,3l-2-2l-3,2l1-3l-3-6l1-2h-8l-7,6l1,3l-6-2v-6
	l-3-2v-7l-1-2l5-5l2-6l-2-2l6-5l8,2l2-3l6,2l8-2l-3-4l6-3l7-9l13,2l7,2l2,3l-1,7l4,6l-2,4L612.2,1178.6z M585.2,1192.6l-3,2l-2-2
	l5-3V1192.6z M561.2,1192.6l-1-4l3,1l-1,8h-3l1-3l-4-5L561.2,1192.6z M554.2,1186.6l1,2l-4,3L554.2,1186.6z M574.2,1196.6l-2-2h4
	L574.2,1196.6z M564.2,1196.6h2l-2,3h3l-2,2l-5-1l3-6h2L564.2,1196.6z M598.2,1187.6l1,3l-3-3H598.2z M596.2,1188.6l-4,3l1-3H596.2z
	 M600.2,1182.6l1,1l-3,2L600.2,1182.6z"/>
<path class="st0" d="M523.2,1161.6l1,6l-3,5l1,4h5l-2,5l3,4l5-2l2,2l3-4v-4l3-2v7l3,2v6l6,2l-1,5h-2v8l-5,3l1,7l-4-6h-5l-5-6l-4,2
	l2-3l-4-3l-10,4l-4-3l-2,3v-2l-2,2v-4l-2,5l-5,2l-2-2l-2,2l-2-5l-5-4l-7,7v-7l-2-4l4-6l-3-5l2-4h7l-5-2l2-3l8,2l1,3h8l6-2l-1-3
	l11-11l3,1L523.2,1161.6z M542.2,1215.6l-5,2l2-4L542.2,1215.6z M553.2,1211.6l7-2l-5,2v3l-4-3l-5,3l-1-5l2-2L553.2,1211.6z
	 M496.2,1176.6l-1-2l5,1L496.2,1176.6z M529.2,1207.6h-3l3-3V1207.6z"/>
<path class="st0" d="M671.2,1197.6l2-1l-1,3L671.2,1197.6z M663.2,1197.6l7-1v2l3,1l-4,9l7,7l-4,5l6,1l-19,11l-5,6l-5-1l-3-4l2-3
	l-6-1l-1-9l-6,2l-13-6l1-8l10-5l6,2l10-6l12,2L663.2,1197.6z"/>
<path class="st0" d="M623.2,1208.6l-4-2l3-9l-5-5l6,3l14-10l7,3l4-3l1,4l2-2l3,2v3l9,5l-2,4l-12-2l-10,6l-6-2L623.2,1208.6z
	 M644.2,1180.6l-1-1h3L644.2,1180.6z M658.2,1175.6h2l-2,8l-3-1l1-2l-4,4l1-4l-4-2L658.2,1175.6z"/>
<path class="st0" d="M568.2,1209.6l-2-1l4-3L568.2,1209.6z M589.2,1194.6h-4l4-6l3,3L589.2,1194.6z M594.2,1193.6l2,1l-2,1l-3-1
	L594.2,1193.6z M592.2,1198.6l-3,2l1-5l4,1L592.2,1198.6z M567.2,1273.6l-8-2l1,3h-3l1-5l4,1l-6-5l2-1l-2-4h4l-4-1l2-2l-3-2l4,3l4-4
	l-1-3h-3l2-3h-8l3-2l-2-2l2-5l-6-1l-8,6l-7,1l34-20l7-18l8-4l-1-4l2-1l9,14l10-4l10,2l5-4l4,2l-1,8l-25,4l-6,9l-4,10l-11,1l5,9l-6,3
	l-5,8l-4-3l3,13L567.2,1273.6z"/>
<path class="st1" d="M622.2,1216.6l13,6l6-2l1,9l6,1l-2,3l3,4l5,1l-7,19l-12-16l-10-3l-9,2l-1-3l1,3l-12,4h6l-6,1l-1,3l-2-3l-3,5
	l1,4l-2,6h-3l-4,8l-5,1v8l-3,3l3,7l-4-5l-7,3l-5-4l-4,2l2-6l3-1v-3h-3l2-3l-3-13l4,3l5-8l6-3l-5-9l11-1l4-10l6-9L622.2,1216.6z
	 M562.2,1285.6l-2,2v-4L562.2,1285.6z"/>
<path class="st0" d="M473.2,1256.6l-8-5l-2,4l-4-1l-4,4v3l-5-1v-5l-2-3l1-7l9-5v-6l-6,2l-7-6h-12l6-4l-3-3l6-5l3,6l7-1l2-5l-4,2
	l-3-3l5,1l4-3l1-8l10-1l1-3l6,1l-3,3l3,1l1-3l4,2l7-4l-4,8l2,2l-1,1l5,10l5,1l-1,7l-8-1l-7,4l-4,6l2,5l-2,1l3,4L473.2,1256.6z"/>
<path class="st0" d="M433.2,1230.6h12l7,6l6-2v6l-9,5l-1,7l-6-5l-5,5l2,10l-7-2l-7-7l1-5l-6-2l-3-6l2-3l4,4l-2-4l3-4l-5-3l2-2l2,2
	v-6l1,2h5v4H433.2z"/>
<path class="st0" d="M406.2,1152.6l3-2l2,3l-4,3l2,4l-6,6l-1,4l3-2l-3,4l3-1l-3,4v-5l-2,3v-4l-2,3l-3-1l3-1v-4l2-1l-2-1l4-3l-2-3
	l2-5l4,1V1152.6z M400.2,1179.6l-3,6l-6,1l3-14l1,3l3,1l-1-3l2,3l2-1L400.2,1179.6z M420.2,1210.6l1,2l-4,2l-3-5l2,1l-2-3l3-3l4,1
	l-2,3l3,1L420.2,1210.6z M381.2,1261.6l-3,5l2-6l-4-2l3-1v-4h2l2-9l-2,11l5,1l-2,3l-2-2L381.2,1261.6z M377.2,1262.6h-3v-2l2,1l-1-3
	L377.2,1262.6z M372.2,1264.6l1-3v5l-4-4L372.2,1264.6z M360.2,1269.6l3-2l1,2l2-3l3,10l-6-1v4l-9-3l1-2l1,3l1-2h-1l2-2l-1-7
	L360.2,1269.6z M419.2,1230.6l-3,2l2-4L419.2,1230.6z M421.2,1233.6l2,2l-3,1L421.2,1233.6z M383.2,1238.6l2-2l1,2H383.2z
	 M408.2,1227.6h-3l3-2V1227.6z M419.2,1237.6l-2,3l3,6l6,2l-1,5l7,7l7,2l-7,6l13,1l2,5l-2,6l-10,5l-1-6l4-4l-1-3h-5l-7,1l-3,6l-9,5
	l4-5l-1-2h3l2-3l-3,1l-2-6l-4-1l-3-6l3-11l4,4l-1,3l1-2l3,3l-2,7l11,3l-3-6l1-5l-4-4l-3,2v-7l-4,1v-3l-3,4l2-2l-4-2l1-4l-1,2l-4-2
	l4-5l-3-1l1-4l5-1l1,3h5V1237.6z M403.2,1238.6l-1,5l-6,1l4-2l-1-2l2-6l5,1l1-4l1,4L403.2,1238.6z M368.2,1266.6l1-3l2,3l-3,2
	V1266.6z M417.2,1251.6v4l-2-4l2-2V1251.6z"/>
<path class="st0" d="M433.2,1288.6h4v11l-8,9l-4,1v-6l4-1l-5-2l5-9l-2-3H433.2z M444.2,1298.6h-6l-1-4l6-4h8l-4,8H444.2z
	 M448.2,1284.6l3,1l-1,4l-2-1V1284.6z M462.2,1318.6l-5-6l-9,4l-4-4l12-16l-2-5l2,1l-1-2l6-6l-10,1l8-6l1-5l-9-8l-1-6l5,1v-3l4-4
	l4,1l2-4l8,5l7,5l2-4l-1-6l6,1l7,13v6l3,3l-3,1l-9,14l-5,2l-1,7l5,7l-4,5l3,5L462.2,1318.6z"/>
<path class="st0" d="M473.2,1256.6l3-5l-3-4l2-1l-2-5l4-6l7-4l8,1l1-7l12,4l5-7l9,4l2,6l-2,8l-4-1l1,3l-8,2v4l4,2l17-1l-6,9h5l-3,2
	l3,2l5-2l1,3h-5l-2,4l10,4h-6l2,2l-4,3l4,1l-7,1v4h-2l1-5l-5-1l-3,4h-8l-4-5l-6,1l-2-2l-3-3v-6l-7-13l-6-1l1,6l-2,4L473.2,1256.6z"
	/>
<path class="st0" d="M497.2,1274.6l2,2l6-1l4,5h8l3-4l5,1l-1,5h2l-11,10l-1,4l3,1l-4,1l-1,2l2,1l-5,8l-6,17l-3,23l-5,5l-2,12l-5-2
	l-5-5l2-3v-7l-7-1l-3-9l-5-2l2-5l-6-5l-5-7l1-2l21-3l-3-5l4-5l-5-7l1-7l5-2l9-14L497.2,1274.6z"/>
<path class="st0" d="M329.2,1600.6l-4,2v-5l9-1L329.2,1600.6z M346.2,1578.6v-8l4-1v5l3,3l-1,3l-5,3l-2-4L346.2,1578.6z
	 M407.2,1549.6l-2,2l-1-3l6-3L407.2,1549.6z M389.2,1541.6l-13,9l3,2l-4,4l-3-2l1,4l-5-5l1-2l-8-3h7l2-1l-5-2l14-5l2,2l3-5h4l-2,3
	l2-2l2,2l2-6l1,6L389.2,1541.6z M368.2,1559.6l-1-2l-3,2l-1-7l5,2l-2,3l6,1l-2,3v-2H368.2z M428.2,1417.6l3,2h-3V1417.6z
	 M438.2,1428.6l-1-6l7-4l9,6l-1,5l-6,4l-6-1L438.2,1428.6z M469.2,1421.6v5l-6,1v-8l3-3l2-9l7-10l1,9L469.2,1421.6z M444.2,1312.6
	l4,4l9-4l5,6l-1,2l5,7l6,5l-2,5l5,2l3,9l7,1v7l-2,3l-3-1l-5,6l5,3l-2,3h3l-6,3l-4,5l-16,8v-5l5-3l4-13l-5-8v-6l-6-2l5-2l1,4h3l4-6
	l-7-5l-4,2l-6,13l2,11l5,3l-2,5l-6,1l-3-6l-13-1l1-3l-3-2l2-1l-5-5l9,1l4-11l-3-8l-5-5l3-7l-2-11l4-2l3,2L444.2,1312.6z
	 M437.2,1305.6l2-1l-1,2L437.2,1305.6z M432.2,1315.6l-2-5l4-3l2,5L432.2,1315.6z M410.2,1336.6l2-3l1,2l-6,8l-2-1L410.2,1336.6z
	 M418.2,1332.6l-4-3h6L418.2,1332.6z M400.2,1464.6l-3,4v-3L400.2,1464.6z M406.2,1453.6l2-2l2,4L406.2,1453.6z"/>
<path class="st0" d="M4.2,1735.6l3,1l-2,1l-5-1L4.2,1735.6z M49.2,1747.6l6,3l-4,6l-11-5l2-2l3,2l1-7L49.2,1747.6z M127.2,1733.6
	l-1-4l3,2L127.2,1733.6z M133.2,1739.6l-3-2h2l-1-3l2-2l-1-5l3,8l7,6L133.2,1739.6z M225.2,1650.6v5l-5-5l3-2L225.2,1650.6z
	 M468.2,1707.6l-1-3h2L468.2,1707.6z M280.2,1635.6v-2l3,2H280.2z M294.2,1639.6v2l-2-2H294.2z M73.2,1744.6l5-6l1,2l-6,6v7h-6l-2-2
	l2-2l-3-3l8,1L73.2,1744.6z M288.2,1647.6l3-3l-5-2v-6l6,1l1,4l6-1l-1-2l10-10l3,4l-1,5l-5,6l-5-1l-1,5l-5-1l1,2l-7,5l-6-1l4,9l-4-2
	l-5,7l4,3l-10,4l-1-8l7-6l-2-8l5,1L288.2,1647.6z"/>
<g class="st2">
	<path d="M781.6,1329.9h42.9v52.4l44.9-52.4h57l-50.6,52.4l52.9,86.4h-52.8l-29.3-57.1l-22.2,23.2v33.9h-42.9V1329.9z"/>
	<path d="M930.9,1399.4c0-22.7,6.3-40.3,18.9-52.9c12.6-12.6,30.2-18.9,52.7-18.9c23.1,0,40.9,6.2,53.4,18.6
		c12.5,12.4,18.7,29.8,18.7,52.1c0,16.2-2.7,29.5-8.2,39.9c-5.5,10.4-13.3,18.5-23.7,24.2c-10.3,5.8-23.2,8.7-38.6,8.7
		c-15.7,0-28.6-2.5-38.9-7.5c-10.3-5-18.6-12.9-24.9-23.7C934.1,1429.1,930.9,1415.6,930.9,1399.4z M973.8,1399.6
		c0,14,2.6,24.1,7.8,30.2c5.2,6.1,12.3,9.2,21.2,9.2c9.2,0,16.3-3,21.4-9c5-6,7.6-16.8,7.6-32.3c0-13.1-2.6-22.6-7.9-28.6
		c-5.3-6-12.4-9-21.4-9c-8.6,0-15.6,3.1-20.8,9.2C976.4,1375.3,973.8,1385.4,973.8,1399.6z"/>
	<path d="M1190.1,1411.9l37.6,11.4c-2.5,10.5-6.5,19.3-11.9,26.4c-5.4,7.1-12.2,12.4-20.2,16c-8,3.6-18.3,5.4-30.7,5.4
		c-15.1,0-27.4-2.2-37-6.6c-9.6-4.4-17.8-12.1-24.8-23.1c-6.9-11-10.4-25.2-10.4-42.4c0-23,6.1-40.6,18.3-52.9
		c12.2-12.3,29.5-18.5,51.8-18.5c17.5,0,31.2,3.5,41.2,10.6c10,7.1,17.4,17.9,22.3,32.6l-37.9,8.4c-1.3-4.2-2.7-7.3-4.2-9.3
		c-2.4-3.3-5.3-5.8-8.8-7.6c-3.5-1.8-7.4-2.7-11.6-2.7c-9.7,0-17.2,3.9-22.3,11.7c-3.9,5.8-5.9,14.9-5.9,27.3
		c0,15.4,2.3,25.9,7,31.6c4.7,5.7,11.2,8.6,19.7,8.6c8.2,0,14.4-2.3,18.6-6.9C1185.2,1427.3,1188.2,1420.6,1190.1,1411.9z"/>
	<path d="M1248.7,1329.9h42.9v48.6h46.9v-48.6h43.1v138.8h-43.1v-56.1h-46.9v56.1h-42.9V1329.9z"/>
	<path d="M1411.7,1329.9h43v138.8h-43V1329.9z"/>
</g>
</svg>
